<svg width="24" height="24" viewBox="0 0 24 24" fill="none" xmlns="http://www.w3.org/2000/svg">
<path d="M14.4817 5.67241C12.7915 5.0095 10.9444 5.04453 9.28057 5.77087C5.84584 7.27038 4.27139 11.2847 5.77089 14.7194C5.87879 14.9666 5.76588 15.2545 5.51868 15.3624C5.27156 15.4703 4.9836 15.3574 4.8757 15.1102C3.16071 11.1818 4.96146 6.5906 8.88978 4.87561C10.7929 4.04482 12.9054 4.00484 14.8384 4.76302C16.7714 5.5212 18.2935 6.98672 19.1243 8.8897C20.8393 12.8181 19.0386 17.4093 15.1102 19.1242C14.1137 19.5593 13.0589 19.7774 12.0022 19.7774C11.056 19.7774 10.1083 19.6024 9.20008 19.2517C8.94846 19.1546 8.82323 18.8718 8.92039 18.6202C9.01761 18.3685 9.30043 18.2434 9.55192 18.3405C11.2328 18.9896 13.068 18.9501 14.7194 18.2291C18.1542 16.7295 19.7286 12.7153 18.2291 9.28055C17.5027 7.61668 16.1719 6.33533 14.4817 5.67241Z" fill="#AAAAAA"/>
<path d="M4.20541 3.51476L5.72621 5.03549C5.91695 5.22622 5.91695 5.53547 5.72621 5.72614C5.63088 5.82148 5.50585 5.86921 5.38088 5.86921C5.25592 5.86921 5.13089 5.82154 5.03555 5.72614L3.51476 4.20541C3.32402 4.01468 3.32402 3.70542 3.51476 3.51476C3.70549 3.32402 4.01474 3.32402 4.20541 3.51476Z" fill="#AAAAAA"/>
<path d="M18.9645 18.2738L20.4853 19.7946C20.676 19.9853 20.676 20.2946 20.4853 20.4852C20.39 20.5806 20.2649 20.6283 20.14 20.6283C20.015 20.6283 19.89 20.5806 19.7947 20.4852L18.2739 18.9644C18.0831 18.7737 18.0831 18.4645 18.2739 18.2738C18.4645 18.0831 18.7738 18.0831 18.9645 18.2738Z" fill="#AAAAAA"/>
<path d="M0.488383 11.5116H2.63908C2.9088 11.5116 3.12747 11.7303 3.12747 12C3.12747 12.2697 2.9088 12.4884 2.63908 12.4884H0.488383C0.218659 12.4884 -1.14441e-05 12.2697 -1.14441e-05 12C-1.14441e-05 11.7303 0.218659 11.5116 0.488383 11.5116Z" fill="#AAAAAA"/>
<path d="M21.3609 11.5116H23.5116C23.7813 11.5116 24 11.7303 24 12C24 12.2697 23.7813 12.4884 23.5116 12.4884H21.3609C21.0912 12.4884 20.8725 12.2697 20.8725 12C20.8725 11.7303 21.0912 11.5116 21.3609 11.5116Z" fill="#AAAAAA"/>
<path d="M5.03549 18.2738C5.22623 18.0831 5.53548 18.0831 5.72615 18.2738C5.91689 18.4645 5.91689 18.7738 5.72615 18.9644L4.20535 20.4852C4.11001 20.5806 3.98498 20.6283 3.86002 20.6283C3.73505 20.6283 3.61002 20.5806 3.51469 20.4852C3.32395 20.2945 3.32395 19.9853 3.51469 19.7946L5.03549 18.2738Z" fill="#AAAAAA"/>
<path d="M18.9645 5.72621C18.8692 5.82154 18.7442 5.86928 18.6192 5.86928C18.4942 5.86928 18.3692 5.82161 18.2739 5.72621C18.0831 5.53548 18.0831 5.22622 18.2739 5.03555L19.7946 3.51476C19.9853 3.32402 20.2946 3.32402 20.4852 3.51476C20.676 3.70549 20.676 4.01474 20.4852 4.20541L18.9645 5.72621Z" fill="#AAAAAA"/>
<path d="M12 20.8725C12.2697 20.8725 12.4884 21.0912 12.4884 21.3609V23.5116C12.4884 23.7813 12.2697 24 12 24C11.7303 24 11.5116 23.7813 11.5116 23.5116V21.3609C11.5116 21.0912 11.7303 20.8725 12 20.8725Z" fill="#AAAAAA"/>
<path d="M12 3.12749C11.7303 3.12749 11.5116 2.90882 11.5116 2.63909V0.488395C11.5116 0.218671 11.7303 0 12 0C12.2697 0 12.4884 0.218671 12.4884 0.488395V2.63909C12.4884 2.90882 12.2697 3.12749 12 3.12749Z" fill="#AAAAAA"/>
</svg>
