<svg width="24" height="24" viewBox="0 0 24 24" fill="none" xmlns="http://www.w3.org/2000/svg">
<g clip-path="url(#clip0)">
<path d="M19.9978 21.0711C19.997 21.0711 19.9962 21.0711 19.9953 21.0711L7.36631 21.0094C4.93691 21.0094 2.95847 19.031 2.95847 16.5991C2.95847 14.1672 4.93691 12.1888 7.36881 12.1888C7.9427 12.1888 8.50432 12.2993 9.02797 12.5123C9.26539 9.63796 11.6806 7.37146 14.6153 7.37146C17.7067 7.37146 20.2218 9.8865 20.2218 12.9779C20.2218 13.0093 20.2214 13.0409 20.2207 13.0729C22.3243 13.1888 24.0001 14.9369 24.0001 17.0689C24 19.2757 22.2047 21.0711 19.9978 21.0711ZM7.36874 13.2002C5.49461 13.2002 3.96984 14.7249 3.96984 16.5991C3.96984 18.4732 5.49455 19.998 7.36874 19.998L19.9986 20.0597C21.6473 20.0592 22.9885 18.7177 22.9885 17.0689C22.9885 15.4198 21.6469 14.0782 19.9978 14.0782C19.9152 14.0782 19.8276 14.0827 19.722 14.0923C19.5697 14.1064 19.4198 14.0507 19.3134 13.9413C19.2069 13.8319 19.1557 13.6802 19.1738 13.5286C19.1983 13.3239 19.2103 13.1437 19.2103 12.9779C19.2103 10.4441 17.1489 8.38283 14.6152 8.38283C12.0815 8.38283 10.0202 10.4441 10.0202 12.9779C10.0202 13.074 10.0275 13.1744 10.0353 13.2807L10.0377 13.3136C10.0517 13.5062 9.95465 13.69 9.78776 13.7871C9.62081 13.8843 9.41319 13.8778 9.25251 13.7706C8.69345 13.3975 8.04209 13.2002 7.36874 13.2002Z" fill="#AAAAAA"/>
<path d="M2.15639 14.331C2.02058 14.331 1.88525 14.2766 1.78559 14.1693C0.634172 12.9286 0 11.3127 0 9.61909C0 5.93011 3.00121 2.92883 6.69026 2.92883C9.10975 2.92883 11.3479 4.24148 12.5312 6.3545C12.6677 6.59819 12.5808 6.90641 12.3371 7.04282C12.0935 7.1793 11.7853 7.09238 11.6488 6.84869C10.6442 5.05474 8.74415 3.94027 6.69032 3.94027C3.55891 3.94027 1.01144 6.48781 1.01144 9.61909C1.01144 11.0566 1.54966 12.4283 2.52698 13.4812C2.71699 13.6859 2.70506 14.0059 2.50034 14.1959C2.40297 14.2863 2.27951 14.331 2.15639 14.331Z" fill="#AAAAAA"/>
</g>
<defs>
<clipPath id="clip0">
<rect width="24" height="24" fill="white"/>
</clipPath>
</defs>
</svg>
