<svg width="24" height="24" viewBox="0 0 24 24" fill="none" xmlns="http://www.w3.org/2000/svg">
<g clip-path="url(#clip0)">
<path d="M0.696797 13.0924C0.411586 13.0924 0.180359 12.8612 0.180359 12.5759C0.180359 9.86127 2.38892 7.65263 5.10367 7.65263C5.76953 7.65263 6.42066 7.78581 7.02461 8.04244C7.25433 4.79094 9.9732 2.21564 13.2821 2.21564C16.7412 2.21564 19.5554 5.02981 19.5554 8.48892C19.5554 8.54105 19.5546 8.594 19.5529 8.64785C21.6765 8.74184 23.4737 10.3546 23.775 12.4727C23.8151 12.7551 23.6188 13.0166 23.3364 13.0567C23.0539 13.0967 22.7926 12.9005 22.7524 12.6182C22.5139 10.9411 21.0542 9.67638 19.357 9.67638C19.2621 9.67638 19.1617 9.68155 19.0409 9.69257C18.8858 9.70675 18.7323 9.65008 18.6236 9.53839C18.5149 9.4267 18.4625 9.27177 18.481 9.11698C18.5089 8.88368 18.5225 8.67821 18.5225 8.48892C18.5225 5.59934 16.1716 3.24851 13.2821 3.24851C10.3925 3.24851 8.04165 5.59934 8.04165 8.48892C8.04165 8.59971 8.05006 8.71429 8.05887 8.83555L8.06149 8.87157C8.07574 9.06829 7.97672 9.25593 7.80623 9.35516C7.63566 9.45438 7.42365 9.44784 7.25963 9.33836C6.61973 8.91116 5.87413 8.68544 5.10346 8.68544C2.95832 8.68544 1.21303 10.4307 1.21303 12.5759C1.21324 12.8612 0.982009 13.0924 0.696797 13.0924Z" fill="#AAAAAA"/>
<path d="M23.4836 15.4211H0.516439C0.231227 15.4211 0 15.1899 0 14.9047C0 14.6195 0.231227 14.3882 0.516439 14.3882H23.4836C23.7688 14.3882 24 14.6195 24 14.9047C24 15.1899 23.7688 15.4211 23.4836 15.4211Z" fill="#AAAAAA"/>
<path d="M12.8041 18.6027H0.516439C0.231227 18.6027 0 18.3715 0 18.0863C0 17.8011 0.231227 17.5698 0.516439 17.5698H12.8041C13.0893 17.5698 13.3205 17.8011 13.3205 18.0863C13.3205 18.3715 13.0893 18.6027 12.8041 18.6027Z" fill="#AAAAAA"/>
<path d="M23.4835 18.6027H15.6151C15.3299 18.6027 15.0986 18.3715 15.0986 18.0863C15.0986 17.8011 15.3299 17.5698 15.6151 17.5698H23.4836C23.7688 17.5698 24 17.8011 24 18.0863C24 18.3715 23.7688 18.6027 23.4835 18.6027Z" fill="#AAAAAA"/>
<path d="M23.4836 21.7843H6.83254C6.54733 21.7843 6.3161 21.5531 6.3161 21.2679C6.3161 20.9827 6.54733 20.7514 6.83254 20.7514H23.4836C23.7688 20.7514 24 20.9827 24 21.2679C24 21.5531 23.7688 21.7843 23.4836 21.7843Z" fill="#AAAAAA"/>
<path d="M4.30248 21.7843H0.516439C0.231227 21.7843 0 21.5531 0 21.2679C0 20.9827 0.231227 20.7514 0.516439 20.7514H4.30248C4.5877 20.7514 4.81892 20.9827 4.81892 21.2679C4.81892 21.5531 4.5877 21.7843 4.30248 21.7843Z" fill="#AAAAAA"/>
</g>
<defs>
<clipPath id="clip0">
<rect width="24" height="24" fill="white"/>
</clipPath>
</defs>
</svg>
